<svg xmlns="http://www.w3.org/2000/svg" width="820" height="430" viewBox="0 0 820 430" role="img" aria-labelledby="title desc"><title id="title">Map every source before setting a boundary</title><desc id="desc">A stick figure draws arrows from utility, generator and battery boxes toward a load, then circles the full boundary.</desc><rect width="820" height="430" fill="white"/><g fill="none" stroke="black" stroke-width="5" stroke-linecap="round" stroke-linejoin="round"><circle cx="105" cy="85" r="28"/><path d="M105 113v95m0-58-50 38m50-38 55 28m-55 30-40 80m40-80 45 80"/><rect x="245" y="45" width="130" height="70"/><rect x="245" y="175" width="130" height="70"/><rect x="245" y="305" width="130" height="70"/><rect x="555" y="155" width="135" height="110"/><path d="M375 80h180m-180 130h180m-180 130 180-130"/><path d="m535 70 20 10-20 10m0 110 20 10-20 10m0-20 20 10-18 13"/><ellipse cx="620" cy="210" rx="155" ry="155" stroke-dasharray="12 10"/></g><g font-family="sans-serif" font-size="23" fill="black" text-anchor="middle"><text x="310" y="88">UTILITY</text><text x="310" y="218">GENERATOR</text><text x="310" y="348">BATTERY</text><text x="622" y="215">LOAD / BOARD</text><text x="620" y="400">CHECK EVERY SOURCE PATH</text></g></svg>