<svg xmlns="http://www.w3.org/2000/svg" width="900" height="440" viewBox="0 0 900 440" role="img" aria-labelledby="title desc"><title id="title">Multiple-source inventory</title><desc id="desc">A black-and-white diagram showing normal, alternative, auxiliary and stored-energy sources feeding a load boundary, followed by an evidence checkpoint.</desc><rect width="900" height="440" fill="white"/><g fill="none" stroke="black" stroke-width="4" stroke-linecap="round" stroke-linejoin="round"><rect x="45" y="45" width="170" height="70" rx="10"/><rect x="45" y="140" width="170" height="70" rx="10"/><rect x="45" y="235" width="170" height="70" rx="10"/><rect x="45" y="330" width="170" height="70" rx="10"/><rect x="355" y="145" width="190" height="150" rx="14"/><rect x="690" y="165" width="165" height="110" rx="14"/><path d="M215 80h90v100h50M215 175h140M215 270h140M215 365h90V260h50M545 220h145"/><circle cx="620" cy="220" r="32"/><path d="M606 220l10 12 20-27"/></g><g font-family="Arial, sans-serif" fill="black" text-anchor="middle"><text x="130" y="88" font-size="21">normal source</text><text x="130" y="183" font-size="21">alternative source</text><text x="130" y="278" font-size="21">auxiliary source</text><text x="130" y="373" font-size="21">stored energy</text><text x="450" y="205" font-size="24">defined load</text><text x="450" y="237" font-size="24">boundary</text><text x="450" y="270" font-size="18">state-specific map</text><text x="620" y="170" font-size="18">evidence</text><text x="772" y="210" font-size="21">bounded</text><text x="772" y="240" font-size="21">conclusion</text><text x="450" y="420" font-size="22">inventory every energising path before concluding</text></g></svg>