<svg xmlns="http://www.w3.org/2000/svg" width="960" height="420" viewBox="0 0 960 420" role="img" aria-labelledby="title desc">
  <title id="title">Source authority ladder</title>
  <desc id="desc">Black-and-white instructional cartoon showing a learner moving from informal notes through explanatory material to current authorised sources, while an unverified claim is blocked by a stop sign.</desc>
  <rect width="960" height="420" fill="white"/>
  <g stroke="black" fill="none" stroke-width="4" stroke-linecap="round" stroke-linejoin="round">
    <path d="M90 350h650"/>
    <path d="M180 350v-65h150v-70h150v-70h150V75h150"/>
    <circle cx="120" cy="265" r="22"/>
    <path d="M120 287v58m0-38-35 22m35-22 35 22m-35 16-28 45m28-45 28 45"/>
    <path d="M760 275l32-18 32 18v38l-32 18-32-18z"/>
    <path d="M792 270v45"/>
  </g>
  <g font-family="Arial, sans-serif" font-size="22" fill="black" text-anchor="middle">
    <text x="255" y="326">Informal notes</text>
    <text x="405" y="256">Training summary</text>
    <text x="555" y="186">Primary source</text>
    <text x="705" y="116">Current authorised source</text>
    <text x="792" y="365">Stop: claim unverified</text>
  </g>
</svg>
