<svg xmlns="http://www.w3.org/2000/svg" width="900" height="460" viewBox="0 0 900 460" role="img" aria-labelledby="title desc"><title id="title">Segment the route before selection</title><desc id="desc">A black-and-white stick figure divides one cable route into ceiling, external wall and workshop segments, each with a different influence symbol.</desc><rect width="900" height="460" fill="white"/><g fill="none" stroke="black" stroke-width="5" stroke-linecap="round" stroke-linejoin="round"><circle cx="90" cy="105" r="28"/><path d="M90 133v120M90 170l-45 45M90 170l60 35M90 253l-38 82M90 253l44 82"/><path d="M190 210h170M360 210h180M540 210h180"/><rect x="205" y="120" width="135" height="150"/><rect x="385" y="120" width="135" height="150"/><rect x="565" y="120" width="135" height="150"/><path d="M250 150c25 20 25 40 0 60M430 145c20 15 30 35 35 60M610 150l55 55M665 150l-55 55"/></g><g font-family="Arial, sans-serif" fill="black" text-anchor="middle"><text x="272" y="305" font-size="18">CEILING</text><text x="452" y="305" font-size="18">EXTERNAL</text><text x="632" y="305" font-size="18">WORKSHOP</text><text x="450" y="420" font-size="25" font-weight="700">SEGMENT THE ROUTE; MATCH EACH INFLUENCE</text></g></svg>