<svg xmlns="http://www.w3.org/2000/svg" width="960" height="540" viewBox="0 0 960 540" role="img" aria-labelledby="title desc"><title id="title">Compare before concluding</title><desc id="desc">A stick-figure learner compares three hypothesis cards with an evidence board; one card is crossed out and two remain under review.</desc><rect width="960" height="540" fill="white"/><g fill="none" stroke="black" stroke-width="6" stroke-linecap="round" stroke-linejoin="round"><circle cx="120" cy="145" r="40"/><path d="M120 185v120M120 220l-60 55M120 220l85 35M120 305l-45 100M120 305l55 100"/><rect x="270" y="90" width="170" height="110" rx="8"/><rect x="270" y="230" width="170" height="110" rx="8"/><rect x="270" y="370" width="170" height="110" rx="8"/><rect x="600" y="145" width="270" height="250" rx="8"/><path d="M440 145h160M440 285h160M440 425h160M320 255l70 60M390 255l-70 60M650 205h170M650 255h150M650 305h130M650 355h110"/></g><g fill="black" font-family="Arial, sans-serif" text-anchor="middle"><text x="355" y="155" font-size="24">HYPOTHESIS A</text><text x="355" y="295" font-size="24">HYPOTHESIS B</text><text x="355" y="435" font-size="24">HYPOTHESIS C</text><text x="735" y="125" font-size="25">EVIDENCE BOARD</text></g></svg>