<svg xmlns="http://www.w3.org/2000/svg" viewBox="0 0 900 420" role="img" aria-labelledby="title desc"><title id="title">Planning evidence board</title><desc id="desc">A black-and-white diagram linking purpose, demand, conductor variables, voltage drop and protection to an uncertainty register and bounded proposal.</desc><rect width="900" height="420" fill="white"/><g fill="none" stroke="black" stroke-width="3"><rect x="30" y="55" width="140" height="70" rx="10"/><rect x="200" y="55" width="140" height="70" rx="10"/><rect x="370" y="55" width="140" height="70" rx="10"/><rect x="540" y="55" width="140" height="70" rx="10"/><rect x="710" y="55" width="160" height="70" rx="10"/><path d="M170 90h30m140 0h30m140 0h30m140 0h30"/><rect x="235" y="230" width="190" height="95" rx="10"/><rect x="475" y="230" width="190" height="95" rx="10"/><path d="M450 125v60m0 0-120 45m120-45 120 45"/></g><g font-family="sans-serif" font-size="18" text-anchor="middle"><text x="100" y="85">Purpose and</text><text x="100" y="108">constraints</text><text x="270" y="98">Demand basis</text><text x="440" y="85">Conductor</text><text x="440" y="108">variables</text><text x="610" y="85">Voltage-drop</text><text x="610" y="108">reasoning</text><text x="790" y="85">Protection</text><text x="790" y="108">coordination</text><text x="330" y="267">Uncertainty register</text><text x="330" y="294">sources • assumptions</text><text x="570" y="267">Bounded proposal</text><text x="570" y="294">or stop decision</text></g></svg>