<svg xmlns="http://www.w3.org/2000/svg" width="900" height="520" viewBox="0 0 900 520" role="img" aria-labelledby="title desc"><title id="title">MEN concept map</title><desc id="desc">Black-and-white diagram separating supply, load, neutral, protective earthing and an authorised neutral-earth relationship.</desc><rect width="900" height="520" fill="white"/><g stroke="black" fill="none" stroke-width="3"><rect x="40" y="190" width="140" height="90" rx="10"/><rect x="260" y="80" width="150" height="80" rx="10"/><rect x="500" y="80" width="150" height="80" rx="10"/><rect x="260" y="340" width="170" height="80" rx="10"/><rect x="520" y="340" width="190" height="80" rx="10"/><path d="M180 220 H260"/><path d="M410 120 H500"/><path d="M575 160 V300 H345 V340"/><path d="M180 250 H220 V380 H260"/><path d="M430 380 H520" stroke-dasharray="10 8"/><path d="M615 340 V300"/><circle cx="220" cy="250" r="5" fill="black"/></g><g font-family="Arial, sans-serif" font-size="20" fill="black" text-anchor="middle"><text x="110" y="225">Supply</text><text x="110" y="252">source</text><text x="335" y="118">Active path</text><text x="575" y="118">Load</text><text x="345" y="375">Neutral return</text><text x="615" y="375">Protective earthing</text><text x="475" y="455">Dashed link: authorised location only</text></g></svg>