<svg xmlns="http://www.w3.org/2000/svg" width="900" height="420" viewBox="0 0 900 420" role="img" aria-labelledby="title desc"><title id="title">Trace the whole fault loop before concluding</title><desc id="desc">A stick figure follows arrows from a source to a fault and back through the protective path, while a stop sign marks missing evidence.</desc><rect width="900" height="420" fill="white"/><g fill="none" stroke="black" stroke-width="5" stroke-linecap="round" stroke-linejoin="round"><circle cx="115" cy="125" r="28"/><path d="M115 153v95m0-60-55 40m55-40 55 40m-55 20-45 75m45-75 45 75"/><rect x="245" y="85" width="120" height="95"/><path d="M365 132h130l45 80h115l55-80h95"/><path d="M805 132v155H365V180"/><path d="M485 115l10 17-10 17M645 195l10 17-10 17M575 270l-10 17 10 17"/><circle cx="540" cy="212" r="13"/><path d="M527 199l26 26M553 199l-26 26"/><polygon points="745,245 800,340 690,340"/><path d="M745 275v35m0 15v2"/></g><g font-family="Arial, sans-serif" font-size="22" fill="black"><text x="258" y="75">source</text><text x="505" y="185">fault</text><text x="470" y="315">protective return path</text><text x="680" y="375">stop when evidence is missing</text></g></svg>