<svg xmlns="http://www.w3.org/2000/svg" width="900" height="420" viewBox="0 0 900 420" role="img" aria-labelledby="title desc"><title id="title">Repair one link then stop</title><desc id="desc">A stick figure repairs one broken link in a chain of calculation steps while a stop sign marks the session boundary.</desc><rect width="900" height="420" fill="white"/><g fill="none" stroke="black" stroke-width="5" stroke-linecap="round" stroke-linejoin="round"><circle cx="150" cy="100" r="28"/><path d="M150 128v105m0-65l-55 45m55-45l72 20m-72 45l-40 70m40-70l45 70"/><rect x="285" y="130" width="115" height="70"/><rect x="455" y="130" width="115" height="70"/><rect x="625" y="130" width="115" height="70"/><path d="M400 165h38m132 0h55M430 150l25 15-25 15"/><path d="M520 150l-25 15 25 15"/><polygon points="790,245 835,265 853,310 835,355 790,375 745,355 727,310 745,265"/></g><g font-family="Arial, sans-serif" font-size="23" text-anchor="middle" fill="black"><text x="342" y="173">INPUT</text><text x="512" y="173">METHOD</text><text x="682" y="173">RESULT</text><text x="790" y="318">STOP</text><text x="450" y="390">REPAIR ONE WEAK LINK, THEN REST</text></g></svg>