<svg xmlns="http://www.w3.org/2000/svg" width="960" height="440" viewBox="0 0 960 440" role="img" aria-labelledby="title desc">
  <title id="title">Classify conditions before selecting the route treatment</title>
  <desc id="desc">A stick-figure learner studies a route divided into heat, moisture, shared-service and support sections before choosing an arrangement.</desc>
  <rect width="960" height="440" fill="#fff"/>
  <g stroke="#000" stroke-width="5" fill="none" stroke-linecap="round" stroke-linejoin="round">
    <circle cx="105" cy="205" r="27"/><path d="M105 232V320 M105 260L175 230 M105 270L55 300 M105 320L70 385 M105 320L145 385"/>
    <path d="M205 220H820"/><path d="M340 190V250 M500 190V250 M660 190V250"/>
    <path d="M250 165c15-25 30 25 45 0s30 25 45 0"/>
    <path d="M410 150c0 30-30 40-30 70a30 30 0 0 0 60 0c0-30-30-40-30-70z"/>
    <path d="M535 155V245 M575 155V245 M535 180H575 M535 220H575"/>
    <path d="M705 180V260 M760 180V260 M705 220H760"/>
    <path d="M205 220L175 230"/>
    <rect x="220" y="80" width="120" height="45" rx="5"/><rect x="370" y="80" width="120" height="45" rx="5"/><rect x="520" y="80" width="150" height="45" rx="5"/><rect x="700" y="80" width="120" height="45" rx="5"/>
  </g>
  <g fill="#000" font-family="Arial, Helvetica, sans-serif" text-anchor="middle" font-weight="700">
    <text x="280" y="109" font-size="19">HEAT</text><text x="430" y="109" font-size="19">MOISTURE</text><text x="595" y="109" font-size="19">OTHER SERVICE</text><text x="760" y="109" font-size="19">SUPPORT</text>
    <text x="480" y="420" font-size="27">One route. Several conditions. Classify before choosing.</text>
  </g>
</svg>