<svg xmlns="http://www.w3.org/2000/svg" width="900" height="520" viewBox="0 0 900 520" role="img" aria-labelledby="title desc">
  <title id="title">Reopen every affected design gate</title>
  <desc id="desc">A stick figure follows arrows from a changed route to conductor, voltage, fault and protection checkpoints.</desc>
  <rect width="900" height="520" fill="white"/>
  <g fill="none" stroke="black" stroke-width="6" stroke-linecap="round" stroke-linejoin="round">
    <circle cx="130" cy="135" r="35"/><path d="M130 170v105M130 205l-55 55M130 205l60 45M130 275l-45 75M130 275l50 75"/>
    <rect x="260" y="80" width="130" height="70"/><rect x="470" y="80" width="130" height="70"/><rect x="680" y="80" width="130" height="70"/>
    <path d="M190 245C260 210 280 165 325 150M390 115h80M600 115h80"/>
    <path d="M450 300h330M510 270l-60 30 60 30M720 270l60 30-60 30"/>
    <circle cx="450" cy="300" r="28"/><circle cx="615" cy="300" r="28"/><circle cx="780" cy="300" r="28"/>
  </g>
  <text x="450" y="485" text-anchor="middle" font-family="sans-serif" font-size="26" fill="black">One changed fact can reopen several design gates.</text>
</svg>
