<svg xmlns="http://www.w3.org/2000/svg" width="960" height="420" viewBox="0 0 960 420" role="img" aria-labelledby="title desc"><title id="title">Trace the path and units before calculating</title><desc id="desc">A stick figure traces a circuit from source to load while checking current, route length, conductor data and units on a calculation board.</desc><rect width="960" height="420" fill="white"/><g fill="none" stroke="black" stroke-width="5" stroke-linecap="round" stroke-linejoin="round"><circle cx="105" cy="105" r="34"/><path d="M105 139v108m0-66-48 40m48-40 58 35m-58 31-43 88m43-88 52 88"/><rect x="220" y="110" width="95" height="95" rx="8"/><rect x="690" y="110" width="120" height="95" rx="8"/><path d="M315 158h375m-30-22 30 22-30 22"/><path d="M370 158v90h210v-90"/><rect x="350" y="260" width="250" height="90"/><path d="M380 290h190M380 325h190"/></g><g font-family="Arial, sans-serif" fill="black"><text x="240" y="100" font-size="22" font-weight="bold">Source</text><text x="720" y="100" font-size="22" font-weight="bold">Load</text><text x="390" y="145" font-size="20">current and path</text><text x="370" y="250" font-size="20" font-weight="bold">Calculation record</text><text x="385" y="285" font-size="18">length • conductor data</text><text x="385" y="320" font-size="18">units • boundary • source</text><text x="175" y="397" font-size="22" font-weight="bold">Caption: Define the boundary, path convention and units before performing the arithmetic.</text></g></svg>