<svg xmlns="http://www.w3.org/2000/svg" width="900" height="460" viewBox="0 0 900 460" role="img" aria-labelledby="title desc"><title id="title">Map functions before appearance</title><desc id="desc">A black-and-white stick figure maps incoming supply, main control, distribution, identification and access boundaries on a switchboard diagram before judging its appearance.</desc><rect width="900" height="460" fill="white"/><g fill="none" stroke="black" stroke-width="5" stroke-linecap="round" stroke-linejoin="round"><circle cx="95" cy="105" r="28"/><path d="M95 133v120M95 170l-48 45M95 170l62 35M95 253l-40 82M95 253l45 82"/><rect x="220" y="55" width="560" height="300" rx="14"/><rect x="255" y="90" width="105" height="80"/><rect x="395" y="90" width="145" height="80"/><rect x="575" y="90" width="165" height="80"/><rect x="255" y="215" width="200" height="90"/><rect x="490" y="215" width="250" height="90"/><path d="M360 130h35M540 130h35M455 260h35"/><path d="M195 85v250" stroke-dasharray="10 10"/></g><g font-family="Arial, sans-serif" fill="black" text-anchor="middle"><text x="307" y="126" font-size="18">INCOMING</text><text x="467" y="126" font-size="18">MAIN CONTROL</text><text x="657" y="126" font-size="18">DISTRIBUTION</text><text x="355" y="255" font-size="18">IDENTIFICATION</text><text x="615" y="255" font-size="18">EARTHING / NEUTRAL</text><text x="195" y="380" font-size="18">ACCESS BOUNDARY</text><text x="450" y="425" font-size="25" font-weight="700">MAP FUNCTION, SOURCE AND ACCESS BEFORE APPEARANCE</text></g></svg>