<svg xmlns="http://www.w3.org/2000/svg" width="1080" height="420" viewBox="0 0 1080 420" role="img" aria-labelledby="title desc"><title id="title">Planning evidence pack chain</title><desc id="desc">A black-and-white chain linking scenario frame, grouping options, demand evidence, selection envelopes, coordination questions and bounded recommendation.</desc><rect width="1080" height="420" fill="white"/><text x="540" y="45" font-family="Arial, sans-serif" font-size="28" font-weight="bold" text-anchor="middle">Planning evidence pack</text><g fill="white" stroke="black" stroke-width="3"><rect x="25" y="145" width="150" height="90" rx="12"/><rect x="200" y="145" width="150" height="90" rx="12"/><rect x="375" y="145" width="150" height="90" rx="12"/><rect x="550" y="145" width="150" height="90" rx="12"/><rect x="725" y="145" width="150" height="90" rx="12"/><rect x="900" y="145" width="150" height="90" rx="12"/><path d="M175 190h25M350 190h25M525 190h25M700 190h25M875 190h25"/><path d="M190 180l10 10-10 10M365 180l10 10-10 10M540 180l10 10-10 10M715 180l10 10-10 10M890 180l10 10-10 10"/></g><g font-family="Arial, sans-serif" fill="black" text-anchor="middle" font-size="17"><text x="100" y="178">Scenario</text><text x="100" y="202">frame</text><text x="275" y="178">Grouping</text><text x="275" y="202">options</text><text x="450" y="178">Demand</text><text x="450" y="202">evidence</text><text x="625" y="173">Selection</text><text x="625" y="197">envelopes</text><text x="800" y="173">Coordination</text><text x="800" y="197">questions</text><text x="975" y="173">Bounded</text><text x="975" y="197">recommendation</text><text x="540" y="305" font-size="19">Every arrow requires traceable evidence, explicit assumptions and authorised-source questions</text></g><path d="M120 330h840" stroke="black" stroke-width="2" stroke-dasharray="9 8"/><text x="540" y="365" font-family="Arial, sans-serif" font-size="18" text-anchor="middle">No component sizes, limits or compliance claims are supplied</text></svg>