<svg xmlns="http://www.w3.org/2000/svg" width="900" height="520" viewBox="0 0 900 520" role="img" aria-labelledby="title desc"><title id="title">Conditions before factors</title><desc id="desc">A stick-figure learner studies a cable route through grouped circuits, insulation and a hot area before adjusting a factor dial.</desc><rect width="900" height="520" fill="white"/><g fill="none" stroke="black" stroke-width="5" stroke-linecap="round" stroke-linejoin="round"><circle cx="110" cy="120" r="34"/><path d="M110 154v115M110 185l-55 45M110 185l65 20M110 269l-40 85M110 269l48 85"/><path d="M220 180h130v-60h160v120h150v-70h130"/><path d="M390 95v145M410 95v145M430 95v145"/><path d="M540 155l20-35 20 35 20-35 20 35"/><circle cx="760" cy="315" r="70"/><path d="M760 315l35-35"/><path d="M690 315h140"/></g><g font-family="Arial, sans-serif" font-size="22" fill="black" text-anchor="middle"><text x="410" y="75">GROUPING</text><text x="580" y="95">INSULATION</text><text x="735" y="140">HOT AREA</text><text x="760" y="420">FACTOR DIAL</text><text x="450" y="475">Find the heat story first; the factor comes later.</text></g></svg>