<svg xmlns="http://www.w3.org/2000/svg" width="960" height="420" viewBox="0 0 960 420" role="img" aria-labelledby="title desc"><title id="title">Source and control review</title><desc id="desc">Black-and-white diagram of normal, alternate and stored-energy sources feeding a source-state matrix, control-scope check, evidence gap and stop condition.</desc><rect width="960" height="420" fill="white"/><g fill="white" stroke="black" stroke-width="3" font-family="sans-serif" font-size="17" text-anchor="middle"><rect x="35" y="65" width="135" height="55" rx="10"/><text x="102" y="98" fill="black">Normal source</text><rect x="35" y="180" width="135" height="55" rx="10"/><text x="102" y="213" fill="black">Alternate source</text><rect x="35" y="295" width="135" height="55" rx="10"/><text x="102" y="328" fill="black">Stored energy</text><rect x="245" y="150" width="160" height="110" rx="10"/><text x="325" y="190" fill="black">Source-state</text><text x="325" y="214" fill="black">matrix</text><text x="325" y="238" fill="black">by condition</text><rect x="475" y="150" width="150" height="110" rx="10"/><text x="550" y="190" fill="black">Control</text><text x="550" y="214" fill="black">purpose and</text><text x="550" y="238" fill="black">scope</text><rect x="695" y="85" width="220" height="70" rx="10"/><text x="805" y="116" fill="black">Unresolved energising</text><text x="805" y="140" fill="black">paths</text><rect x="695" y="265" width="220" height="70" rx="10"/><text x="805" y="296" fill="black">Stop condition and</text><text x="805" y="320" fill="black">bounded conclusion</text></g><g stroke="black" stroke-width="3" fill="none" marker-end="url(#a)"><path d="M170 92L245 175"/><path d="M170 207H245"/><path d="M170 322L245 235"/><path d="M405 205H475"/><path d="M625 185L695 130"/><path d="M625 225L695 290"/><path d="M805 155V265"/></g><defs><marker id="a" markerWidth="10" markerHeight="10" refX="8" refY="3" orient="auto"><path d="M0 0L8 3L0 6Z" fill="black"/></marker></defs></svg>