<svg xmlns="http://www.w3.org/2000/svg" width="800" height="420" viewBox="0 0 800 420" role="img" aria-labelledby="title desc">
  <title id="title">Time-box one useful task</title>
  <desc id="desc">Black-and-white instructional cartoon of a learner placing one task card inside a timer-shaped box while other tasks remain outside.</desc>
  <rect width="800" height="420" fill="#fff"/>
  <g fill="none" stroke="#111" stroke-width="6" stroke-linecap="round" stroke-linejoin="round">
    <circle cx="180" cy="110" r="34"/>
    <path d="M180 144v104M180 176l72 28M180 176l-54 60M180 248l-46 88M180 248l52 88"/>
    <rect x="252" y="170" width="118" height="72" rx="8"/>
    <path d="M272 195h78M272 217h58"/>
    <rect x="420" y="105" width="220" height="220" rx="28"/>
    <circle cx="530" cy="214" r="72"/>
    <path d="M530 214l0-42M530 214l38 22M500 84h60M530 84v21"/>
    <path d="M370 206h50"/>
    <path d="M401 190l19 16-19 16"/>
    <rect x="660" y="135" width="95" height="58" rx="6"/>
    <rect x="660" y="215" width="95" height="58" rx="6"/>
  </g>
  <g fill="#111" font-family="Arial, Helvetica, sans-serif" text-anchor="middle">
    <text x="530" y="350" font-size="22" font-weight="700">ONE BOUNDED TASK</text>
    <text x="708" y="168" font-size="18">LATER</text>
    <text x="708" y="248" font-size="18">LATER</text>
    <text x="400" y="397" font-size="25" font-weight="700">The timer closes the session, not the whole backlog.</text>
  </g>
</svg>