<svg xmlns="http://www.w3.org/2000/svg" width="960" height="440" viewBox="0 0 960 440" role="img" aria-labelledby="title desc"><title id="title">Build the evidence bridge</title><desc id="desc">A learner crosses from a question to a limited conclusion using labelled evidence blocks.</desc><rect width="960" height="440" fill="#fff"/><g stroke="#000" stroke-width="5" fill="none" stroke-linecap="round" stroke-linejoin="round"><circle cx="105" cy="215" r="28"/><path d="M105 243V325 M105 272L165 245 M105 278L55 305 M105 325L70 390 M105 325L140 390"/><rect x="185" y="245" width="135" height="70" rx="6"/><rect x="330" y="220" width="135" height="70" rx="6"/><rect x="475" y="195" width="135" height="70" rx="6"/><rect x="620" y="170" width="135" height="70" rx="6"/><path d="M170 335H780 M170 335L135 390 M780 335L825 390"/><rect x="790" y="95" width="145" height="95" rx="8"/><path d="M755 205L790 160"/></g><g fill="#000" font-family="Arial, Helvetica, sans-serif" text-anchor="middle"><text x="252" y="285" font-size="18" font-weight="700">BOUNDARY</text><text x="398" y="260" font-size="18" font-weight="700">EVIDENCE</text><text x="543" y="235" font-size="17" font-weight="700">DEPENDENCIES</text><text x="688" y="210" font-size="17" font-weight="700">LIMITATIONS</text><text x="862" y="135" font-size="18" font-weight="700">BOUNDED</text><text x="862" y="162" font-size="18" font-weight="700">CONCLUSION</text><text x="480" y="420" font-size="27" font-weight="700">Build the bridge before crossing.</text></g></svg>