<svg xmlns="http://www.w3.org/2000/svg" width="960" height="540" viewBox="0 0 960 540" role="img" aria-labelledby="title desc">
  <title id="title">Retrieve, correct one error, then stop</title>
  <desc id="desc">A black-and-white stick figure closes a book, recalls a workflow on a small board, corrects one error card, and stops at a timer before fatigue.</desc>
  <rect width="960" height="540" fill="white"/>
  <g fill="none" stroke="black" stroke-width="5" stroke-linecap="round" stroke-linejoin="round">
    <circle cx="130" cy="155" r="34"/>
    <path d="M130 189v115M130 225l-58 48M130 225l62 42M130 304l-45 84M130 304l52 82"/>
    <path d="M38 348h165l-18 60H57z"/>
    <path d="M52 360l60 26 72-26"/>
    <path d="M285 95h235v210H285z"/>
    <path d="M315 135h170M315 177h145M315 219h158M315 261h125"/>
    <path d="M255 340h300v118H255z"/>
    <path d="M285 375h95M285 413h160"/>
    <path d="M475 370l18 18 38-48"/>
    <circle cx="690" cy="175" r="34"/>
    <path d="M690 209v112M690 242l-60 48M690 242l56 45M690 321l-45 82M690 321l50 80"/>
    <circle cx="850" cy="325" r="72"/>
    <path d="M850 253v-22M824 231h52M850 325l-2-45M850 325l34 18"/>
    <path d="M790 435h120"/>
    <path d="M805 455h90"/>
  </g>
  <g font-family="Arial, sans-serif" font-size="25" fill="black" text-anchor="middle">
    <text x="120" y="455">1. Close notes</text>
    <text x="402" y="490">2. Correct one priority error</text>
    <text x="835" y="490">3. Stop on time</text>
  </g>
</svg>