<svg xmlns="http://www.w3.org/2000/svg" width="900" height="420" viewBox="0 0 900 420" role="img" aria-labelledby="title desc"><title id="title">Pass every gate before selection</title><desc id="desc">A stick-figure learner guides a cable candidate through labelled evidence gates for load, capacity, protection, voltage drop and terminals before a bounded conclusion.</desc><rect width="900" height="420" fill="white"/><g fill="none" stroke="black" stroke-width="5" stroke-linecap="round" stroke-linejoin="round"><circle cx="85" cy="95" r="25"/><path d="M85 120v95m0-60l-45 35m45-35l55 20m-55 40l-32 62m32-62l38 62"/><path d="M145 210h650"/><rect x="180" y="130" width="95" height="110"/><rect x="305" y="130" width="95" height="110"/><rect x="430" y="130" width="95" height="110"/><rect x="555" y="130" width="95" height="110"/><rect x="680" y="130" width="95" height="110"/><path d="M227 130v110M352 130v110M477 130v110M602 130v110M727 130v110"/><circle cx="820" cy="210" r="48"/><path d="M795 210l18 18 34-44"/></g><g font-family="Arial, sans-serif" font-size="19" text-anchor="middle" fill="black"><text x="227" y="115">LOAD</text><text x="352" y="115">CAPACITY</text><text x="477" y="115">PROTECTION</text><text x="602" y="105">VOLTAGE</text><text x="602" y="127">DROP</text><text x="727" y="115">TERMINALS</text><text x="820" y="285">BOUNDED</text><text x="820" y="308">CONCLUSION</text><text x="450" y="385">EVERY REQUIRED GATE NEEDS EVIDENCE</text></g></svg>