<svg xmlns="http://www.w3.org/2000/svg" width="960" height="540" viewBox="0 0 960 540" role="img" aria-labelledby="title desc">
  <title id="title">Map water before equipment</title>
  <desc id="desc">Black-and-white instructional cartoon showing a stick figure marking a shower outlet and possible water reach on a plan before placing a light and socket symbol.</desc>
  <rect width="960" height="540" fill="white"/>
  <g fill="none" stroke="black" stroke-width="7" stroke-linecap="round" stroke-linejoin="round">
    <rect x="80" y="90" width="560" height="350"/>
    <path d="M130 150h120v120H130z"/>
    <circle cx="190" cy="190" r="12" fill="black"/>
    <path d="M190 202v30m0 0c70 15 120 55 155 115" stroke-dasharray="12 14"/>
    <circle cx="730" cy="155" r="34"/>
    <path d="M730 189v105m0-70-58 48m58-48 68 42m-68 28-45 92m45-92 55 92"/>
    <path d="M654 315l-30 68m4-54-42 10"/>
    <path d="M390 150h80m-40-40v80"/>
    <rect x="505" y="130" width="55" height="55"/>
    <path d="M670 425h190"/>
  </g>
  <g font-family="Arial, sans-serif" fill="black">
    <text x="105" y="125" font-size="28">FIXED WATER FIRST</text>
    <text x="370" y="225" font-size="24">equipment later</text>
    <text x="670" y="465" font-size="24">Map before guessing.</text>
  </g>
</svg>