<svg xmlns="http://www.w3.org/2000/svg" width="900" height="460" viewBox="0 0 900 460" role="img" aria-labelledby="title desc"><title id="title">Map water path and unresolved boundary</title><desc id="desc">A black-and-white stick figure maps a basin, water droplets, a person, electrical equipment and a dashed unresolved spatial boundary leading to a verification gate.</desc><rect width="900" height="460" fill="white"/><g fill="none" stroke="black" stroke-width="5" stroke-linecap="round" stroke-linejoin="round"><circle cx="90" cy="105" r="27"/><path d="M90 132v115M90 165l-45 45M90 165l62 35M90 247l-38 78M90 247l44 78"/><path d="M210 125h150v35c0 55-30 85-75 85s-75-30-75-85z"/><path d="M285 80v45M255 100h60"/><path d="M245 265c15 25 15 45 0 65M285 265c15 25 15 45 0 65M325 265c15 25 15 45 0 65"/><circle cx="500" cy="125" r="26"/><path d="M500 151v110M500 185l-55 48M500 185l60 45M500 261l-40 74M500 261l45 74"/><rect x="650" y="115" width="120" height="145" rx="10"/><path d="M675 155h70M710 135v40"/><path d="M385 70v300" stroke-dasharray="12 12"/><path d="M360 200h25M385 200h70M560 225h90"/><rect x="790" y="175" width="80" height="80" rx="8"/><path d="M810 215h40M830 195v40"/></g><g font-family="Arial, sans-serif" fill="black" text-anchor="middle"><text x="285" y="365" font-size="18">WATER SOURCE</text><text x="500" y="365" font-size="18">CONTACT PATH</text><text x="710" y="295" font-size="18">EQUIPMENT</text><text x="385" y="395" font-size="17">BOUNDARY?</text><text x="830" y="285" font-size="17">VERIFY</text><text x="450" y="430" font-size="24" font-weight="700">MAP RISK AND GEOMETRY; VERIFY THE AUTHORISED BOUNDARY</text></g></svg>