<svg xmlns="http://www.w3.org/2000/svg" width="800" height="420" viewBox="0 0 800 420" role="img" aria-labelledby="title desc"><title id="title">Align brief, evidence and gates</title><desc id="desc">A stick figure aligns a brief, evidence ledger and design gates before a bounded recommendation.</desc><rect width="800" height="420" fill="white"/><g fill="none" stroke="black" stroke-width="4" stroke-linecap="round"><circle cx="100" cy="105" r="28"/><line x1="100" y1="133" x2="100" y2="240"/><line x1="100" y1="170" x2="55" y2="210"/><line x1="100" y1="170" x2="155" y2="210"/><line x1="100" y1="240" x2="65" y2="320"/><line x1="100" y1="240" x2="140" y2="320"/><rect x="210" y="70" width="140" height="90"/><rect x="390" y="70" width="150" height="160"/><rect x="590" y="60" width="130" height="55"/><rect x="590" y="140" width="130" height="55"/><rect x="590" y="220" width="130" height="55"/><line x1="350" y1="115" x2="390" y2="115"/><line x1="540" y1="150" x2="590" y2="87"/><line x1="540" y1="150" x2="590" y2="167"/><line x1="540" y1="150" x2="590" y2="247"/></g><text x="400" y="390" text-anchor="middle" font-family="Arial, sans-serif" font-size="22">Align the brief, evidence and every design gate</text></svg>