<svg xmlns="http://www.w3.org/2000/svg" width="720" height="360" viewBox="0 0 720 360" role="img" aria-labelledby="title desc"><title id="title">Coordinate load, device and conductor evidence</title><desc id="desc">A stick-figure learner compares three labelled cards for load, protective device and conductor while checking an evidence sheet.</desc><rect width="720" height="360" fill="white"/><g fill="none" stroke="black" stroke-width="5" stroke-linecap="round" stroke-linejoin="round"><circle cx="95" cy="90" r="28"/><path d="M95 118V220 M95 145L50 180 M95 145L155 175 M95 220L60 290 M95 220L135 290"/><rect x="210" y="65" width="125" height="95" rx="8"/><rect x="360" y="65" width="125" height="95" rx="8"/><rect x="510" y="65" width="125" height="95" rx="8"/><rect x="300" y="205" width="245" height="80" rx="8"/><path d="M272 160L370 205 M422 160V205 M572 160L480 205 M155 175L210 145"/></g><g font-family="Arial, sans-serif" font-size="20" fill="black"><text x="245" y="120">Load</text><text x="380" y="120">Device</text><text x="525" y="120">Conductor</text><text x="355" y="252">Evidence gate</text><text x="185" y="330">Coordinate three values, not one.</text></g></svg>