<svg xmlns="http://www.w3.org/2000/svg" width="900" height="420" viewBox="0 0 900 420" role="img" aria-labelledby="title desc">
<title id="title">Purpose gate for switching and isolation</title><desc id="desc">A black-and-white diagram showing an ordinary stop control on one path and a verified multi-source isolation question on another, with a learner recording unresolved sources.</desc>
<rect width="900" height="420" fill="white"/><g fill="none" stroke="black" stroke-width="4" stroke-linecap="round" stroke-linejoin="round">
<circle cx="110" cy="105" r="34"/><path d="M110 139v92m0-62l-48 42m48-42l50 36m-50 26l-40 78m40-78l48 78"/>
<rect x="220" y="55" width="190" height="95" rx="12"/><path d="M315 80v45m-25-22h50"/>
<rect x="220" y="260" width="190" height="95" rx="12"/><path d="M255 307h120m-80-25v50m40-50v50"/>
<path d="M145 120h65m205-18h110m-110 205h110"/>
<polygon points="525,55 735,55 790,102 735,150 525,150 470,102"/>
<polygon points="525,260 735,260 790,307 735,355 525,355 470,307"/>
<path d="M790 102h70m-70 205h70"/>
</g><g font-family="Arial, sans-serif" fill="black" text-anchor="middle">
<text x="110" y="375" font-size="22">learner</text><text x="315" y="42" font-size="22">ordinary control</text><text x="315" y="390" font-size="22">all source paths?</text>
<text x="630" y="96" font-size="24">functional switching</text><text x="630" y="126" font-size="18">operating state changed</text>
<text x="630" y="300" font-size="24">isolation claim</text><text x="630" y="330" font-size="18">verify or stop</text><text x="845" y="92" font-size="18">bounded</text><text x="845" y="116" font-size="18">conclusion</text><text x="845" y="296" font-size="18">unresolved</text><text x="845" y="320" font-size="18">sources</text></g></svg>