<svg xmlns="http://www.w3.org/2000/svg" width="900" height="500" viewBox="0 0 900 500" role="img" aria-labelledby="title desc">
  <title id="title">Follow the source trail</title>
  <desc id="desc">A stick-figure learner follows a path from a contents page to an index, then through a cross-reference, before writing an evidence-based conclusion.</desc>
  <rect width="900" height="500" fill="white"/>
  <g fill="none" stroke="black" stroke-width="5" stroke-linecap="round" stroke-linejoin="round">
    <circle cx="120" cy="145" r="32"/>
    <path d="M120 177v100M120 210l-55 45M120 210l65 20M120 277l-45 90M120 277l55 90"/>
    <rect x="210" y="95" width="150" height="170" rx="8"/>
    <path d="M235 130h100M235 160h75M235 190h95M235 220h60"/>
    <rect x="430" y="95" width="150" height="170" rx="8"/>
    <path d="M455 130h90M455 160h105M455 190h70M455 220h100"/>
    <rect x="650" y="95" width="165" height="170" rx="8"/>
    <path d="M675 130h115M675 160h85M675 190h105M675 220h70"/>
    <path d="M360 180h70M580 180h70"/>
    <path d="M415 165l15 15-15 15M635 165l15 15-15 15"/>
    <path d="M245 330h510" stroke-dasharray="12 12"/>
    <path d="M280 315l20 15-20 15M500 315l20 15-20 15M720 315l20 15-20 15"/>
  </g>
  <g font-family="Arial, sans-serif" font-size="28" fill="black" text-anchor="middle">
    <text x="285" y="65">Contents</text>
    <text x="505" y="65">Index and context</text>
    <text x="732" y="65">Cross-reference</text>
    <text x="450" y="420">Trace the source before writing the conclusion</text>
  </g>
</svg>