<svg xmlns="http://www.w3.org/2000/svg" width="900" height="420" viewBox="0 0 900 420" role="img" aria-labelledby="title desc">
<title id="title">Off is a state, not proof</title>
<desc id="desc">A black-and-white stick figure compares a large OFF button with a checklist showing source, boundary, device and verification.</desc>
<rect width="900" height="420" fill="white"/>
<g fill="none" stroke="black" stroke-width="6" stroke-linecap="round" stroke-linejoin="round">
<circle cx="150" cy="120" r="35"/><path d="M150 155v105M150 190l-55 45M150 190l65 25M150 260l-45 80M150 260l55 80"/>
<rect x="280" y="90" width="190" height="130" rx="14"/><circle cx="375" cy="155" r="45"/><path d="M375 125v35"/>
<rect x="560" y="55" width="270" height="290" rx="12"/>
<path d="M600 115h35M600 175h35M600 235h35M600 295h35"/>
<path d="M608 112l9 10 18-24M608 172l9 10 18-24"/>
<path d="M665 115h120M665 175h120M665 235h120M665 295h120"/>
<path d="M470 155h70"/>
</g>
<g font-family="Arial, sans-serif" fill="black">
<text x="334" y="165" font-size="28" font-weight="700">OFF</text>
<text x="665" y="105" font-size="22">SOURCE</text>
<text x="665" y="165" font-size="22">BOUNDARY</text>
<text x="665" y="225" font-size="22">DEVICE</text>
<text x="665" y="285" font-size="22">VERIFY</text>
<text x="450" y="390" text-anchor="middle" font-size="26" font-weight="700">OFF IS AN OBSERVATION. ISOLATION NEEDS EVIDENCE.</text>
</g></svg>