<svg xmlns="http://www.w3.org/2000/svg" width="820" height="360" viewBox="0 0 820 360" role="img" aria-labelledby="title desc"><title id="title">Conductor role evidence check</title><desc id="desc">Black-and-white diagram showing a provisional conductor-role hypothesis checked against a diagram, label and verification evidence before acceptance or stopping.</desc><rect width="820" height="360" fill="white"/><g stroke="black" stroke-width="4" fill="none" stroke-linecap="round" stroke-linejoin="round"><rect x="25" y="90" width="190" height="170" rx="18"/><path d="M65 175h110M90 135v80M150 135v80"/><path d="M215 175h70"/><rect x="285" y="35" width="190" height="75" rx="14"/><rect x="285" y="142" width="190" height="75" rx="14"/><rect x="285" y="249" width="190" height="75" rx="14"/><path d="M475 72l75 103M475 180h75M475 286l75-111"/><polygon points="625,90 710,175 625,260 540,175"/><path d="M710 175h80"/></g><g font-family="sans-serif" fill="black" text-anchor="middle"><text x="120" y="70" font-size="22">Role hypothesis</text><text x="380" y="80" font-size="21">Diagram</text><text x="380" y="187" font-size="21">Label</text><text x="380" y="294" font-size="21">Verification</text><text x="625" y="167" font-size="19">Consistent</text><text x="625" y="191" font-size="19">evidence?</text><text x="765" y="165" font-size="18">Record</text><text x="765" y="190" font-size="18">or stop</text></g></svg>