<svg xmlns="http://www.w3.org/2000/svg" width="900" height="500" viewBox="0 0 900 500" role="img" aria-labelledby="title desc"><title id="title">Map every source before claiming isolation</title><desc id="desc">Black line drawing of a learner tracing grid, generation and stored-energy paths into one installation boundary before considering a switch.</desc><rect width="900" height="500" fill="white"/><g fill="none" stroke="black" stroke-width="4" stroke-linecap="round" stroke-linejoin="round"><circle cx="110" cy="110" r="30"/><path d="M110 140v110M110 175l55 25M110 180l-45 45M110 250l-35 70M110 250l40 70"/><rect x="240" y="55" width="160" height="65"/><rect x="240" y="180" width="160" height="65"/><rect x="240" y="305" width="160" height="65"/><rect x="545" y="135" width="230" height="170"/><path d="M400 87l145 90M400 212h145M400 337l145-90"/><circle cx="660" cy="220" r="34"/><path d="M660 186v68M626 220h68"/><path d="M165 200l75-113M165 200l75 12M165 200l75 137"/></g><g font-family="Arial, sans-serif" font-size="21" fill="black" text-anchor="middle"><text x="320" y="95">Ordinary supply</text><text x="320" y="220">Generation</text><text x="320" y="345">Stored energy</text><text x="660" y="285">Installation boundary</text><text x="450" y="435">Map every source and operating state before making a switching or isolation claim.</text></g></svg>