<svg xmlns="http://www.w3.org/2000/svg" width="900" height="500" viewBox="0 0 900 500" role="img" aria-labelledby="title desc"><title id="title">Classify purpose before device</title><desc id="desc">Black line drawing of a learner sorting three paths labelled normal control, isolation and emergency response before looking at a device box.</desc><rect width="900" height="500" fill="white"/><g fill="none" stroke="black" stroke-width="4" stroke-linecap="round" stroke-linejoin="round"><circle cx="120" cy="110" r="30"/><path d="M120 140v110M120 175l55 25M120 180l-45 45M120 250l-35 70M120 250l40 70"/><rect x="245" y="75" width="185" height="65"/><rect x="245" y="185" width="185" height="65"/><rect x="245" y="295" width="185" height="65"/><path d="M175 200l70-92M175 200h70M175 200l70 128"/><rect x="600" y="170" width="180" height="110"/><path d="M430 108l170 92M430 218l170-5M430 328l170-85"/></g><g font-family="Arial, sans-serif" font-size="21" fill="black" text-anchor="middle"><text x="337" y="115">Normal control</text><text x="337" y="225">Isolation purpose</text><text x="337" y="335">Emergency response</text><text x="690" y="220">Device evidence</text><text x="450" y="430">Classify the required purpose and boundary before claiming device capability.</text></g></svg>