<svg xmlns="http://www.w3.org/2000/svg" width="900" height="420" viewBox="0 0 900 420" role="img" aria-labelledby="title desc"><title id="title">Compare the whole protection chain</title><desc id="desc">A stick figure studies an upstream device, a downstream device and several loads, with arrows showing that one change reopens checks across the chain.</desc><rect width="900" height="420" fill="white"/><g fill="none" stroke="black" stroke-width="5" stroke-linecap="round" stroke-linejoin="round"><circle cx="95" cy="110" r="26"/><path d="M95 136v90m0-55-50 35m50-35 55 35m-55 20-40 70m40-70 45 70"/><rect x="230" y="100" width="120" height="90"/><rect x="505" y="100" width="120" height="90"/><path d="M350 145h155M625 145h145M770 145v-60m0 60v80m0-80h75"/><circle cx="770" cy="65" r="25"/><circle cx="770" cy="250" r="25"/><circle cx="850" cy="145" r="25"/><path d="M285 240c80 70 255 70 335 0"/><path d="M600 225l20 15-20 15"/></g><g font-family="Arial, sans-serif" font-size="22" fill="black"><text x="230" y="85">upstream</text><text x="500" y="85">downstream</text><text x="680" y="335">one change reopens the chain</text></g></svg>