<svg xmlns="http://www.w3.org/2000/svg" width="760" height="360" viewBox="0 0 760 360" role="img" aria-labelledby="title desc"><title id="title">Sort the scenario before solving</title><desc id="desc">A stick-figure learner separates one dense scenario sheet into four cards labelled Task, Fact, Constraint and Evidence gap.</desc><rect width="760" height="360" fill="white"/><g fill="none" stroke="black" stroke-width="4" stroke-linecap="round" stroke-linejoin="round"><circle cx="105" cy="95" r="28"/><path d="M105 123v85M105 150l-48 35M105 150l52 22M105 208l-35 70M105 208l42 70"/><rect x="210" y="45" width="170" height="230"/><path d="M235 85h120M235 120h120M235 155h120M235 190h120M235 225h85M390 160h55M430 145l18 15-18 15"/><rect x="475" y="35" width="110" height="60"/><rect x="610" y="35" width="110" height="60"/><rect x="475" y="125" width="110" height="60"/><rect x="610" y="125" width="110" height="60"/></g><g font-family="Arial, sans-serif" font-size="18" fill="black" text-anchor="middle"><text x="530" y="71">Task</text><text x="665" y="71">Fact</text><text x="530" y="161">Constraint</text><text x="665" y="151">Evidence</text><text x="665" y="174">gap</text><text x="380" y="325" font-size="22">Sort the scenario before solving it.</text></g></svg>