<svg xmlns="http://www.w3.org/2000/svg" width="960" height="540" viewBox="0 0 960 540" role="img" aria-labelledby="title desc"><title id="title">Link each result to its protective purpose</title><desc id="desc">A stick-figure learner connects a circuit box, a protective-device box and an evidence sheet with labelled arrows before writing a bounded conclusion.</desc><rect width="960" height="540" fill="white"/><g fill="none" stroke="black" stroke-width="6" stroke-linecap="round" stroke-linejoin="round"><circle cx="130" cy="145" r="40"/><path d="M130 185v120M130 220l-65 55M130 220l85 35M130 305l-50 100M130 305l60 100"/><rect x="285" y="100" width="180" height="120" rx="8"/><rect x="530" y="100" width="180" height="120" rx="8"/><rect x="650" y="330" width="240" height="120" rx="8"/><path d="M465 160h65M620 220v110M465 180l35 20M710 390H530M530 390l35-20M530 390l35 20"/><rect x="285" y="330" width="210" height="120" rx="8"/><path d="M325 365h130M325 400h110"/></g><g fill="black" font-family="Arial, sans-serif" text-anchor="middle"><text x="375" y="155" font-size="25">CIRCUIT</text><text x="620" y="145" font-size="23">PROTECTIVE</text><text x="620" y="175" font-size="23">DEVICE</text><text x="390" y="470" font-size="23">EVIDENCE RECORD</text><text x="770" y="470" font-size="23">BOUNDED CLAIM</text></g></svg>