<svg xmlns="http://www.w3.org/2000/svg" width="900" height="460" viewBox="0 0 900 460" role="img" aria-labelledby="title desc"><title id="title">Separate motor operating states and protection purposes</title><desc id="desc">A black-and-white stick figure sorts starting, running and fault-state cards into separate paths leading to an integrated evidence record.</desc><rect width="900" height="460" fill="white"/><g fill="none" stroke="black" stroke-width="5" stroke-linecap="round" stroke-linejoin="round"><circle cx="75" cy="105" r="27"/><path d="M75 132v115M75 165l-42 42M75 165l58 35M75 247l-36 77M75 247l42 77"/><rect x="180" y="60" width="150" height="70" rx="8"/><rect x="180" y="165" width="150" height="70" rx="8"/><rect x="180" y="270" width="150" height="70" rx="8"/><rect x="415" y="55" width="190" height="82" rx="10"/><rect x="415" y="158" width="190" height="82" rx="10"/><rect x="415" y="261" width="190" height="82" rx="10"/><rect x="690" y="145" width="150" height="120" rx="12"/><path d="M330 95h85M330 200h85M330 305h85M605 96l85 85M605 199h85M605 302l85-79"/></g><g font-family="Arial, sans-serif" fill="black" text-anchor="middle"><text x="255" y="102" font-size="18">STARTING</text><text x="255" y="207" font-size="18">RUNNING</text><text x="255" y="312" font-size="18">FAULT / ABNORMAL</text><text x="510" y="92" font-size="18">START PERFORMANCE</text><text x="510" y="195" font-size="18">SUSTAINED LOAD</text><text x="510" y="298" font-size="18">PROTECTION + CONTROL</text><text x="765" y="190" font-size="18">INTEGRATED</text><text x="765" y="220" font-size="18">EVIDENCE</text><text x="450" y="420" font-size="24" font-weight="700">ONE CURRENT VALUE CANNOT DESCRIBE EVERY MOTOR STATE</text></g></svg>