<svg xmlns="http://www.w3.org/2000/svg" width="820" height="380" viewBox="0 0 820 380" role="img" aria-labelledby="title desc"><title id="title">Purpose-based load grouping</title><desc id="desc">Black-and-white diagram showing mixed loads sorted into lighting, continuity-sensitive and outdoor groups before an evidence checkpoint.</desc><rect width="820" height="380" fill="white"/><g stroke="black" stroke-width="4" fill="none" stroke-linecap="round" stroke-linejoin="round"><rect x="25" y="45" width="190" height="285" rx="18"/><circle cx="75" cy="105" r="22"/><path d="M75 127v55M48 150h54M75 182l-22 42M75 182l22 42"/><path d="M125 85h55M125 125h55M125 165h55M125 205h55"/><path d="M215 185h70"/><rect x="285" y="35" width="235" height="90" rx="14"/><rect x="285" y="145" width="235" height="90" rx="14"/><rect x="285" y="255" width="235" height="90" rx="14"/><path d="M520 185h75"/><polygon points="650,105 735,185 650,265 565,185"/><path d="M735 185h55"/></g><g font-family="sans-serif" fill="black" text-anchor="middle"><text x="120" y="65" font-size="21">Mixed loads</text><text x="402" y="88" font-size="22">Lighting purpose</text><text x="402" y="198" font-size="22">Continuity-sensitive</text><text x="402" y="308" font-size="22">Outdoor purpose</text><text x="650" y="177" font-size="20">Evidence</text><text x="650" y="202" font-size="20">checked?</text><text x="775" y="170" font-size="18">Document</text><text x="775" y="194" font-size="18">rationale</text></g></svg>